<?xml version="1.0"?>
<svg width="81" height="75" viewBox="0 0 81 75" xmlns="http://www.w3.org/2000/svg" xmlns:svg="http://www.w3.org/2000/svg" version="1.1" xml:space="preserve">
 <!-- Created with SVG-edit - https://github.com/SVG-Edit/svgedit-->
 <g class="layer">
  <title>Layer 1</title>
  <path d="m43.2,65.52c0,-2.33 0,-4.67 0,-7c0,-1.76 -0.63,-3.23 -2.58,-3.24c-1.99,-0.01 -2.52,1.46 -2.51,3.24c0.03,4.67 0.01,9.34 0,14.01c0,0.92 -0.07,1.88 -1.06,2.34c-0.99,0.45 -1.61,-0.28 -2.18,-0.9c-9.07,-9.87 -18.47,-19.48 -27.09,-29.72c-7.86,-9.36 -9.89,-20.3 -5.52,-31.93c3.88,-10.31 16.77,-15.29 26.52,-10.47c5.6,2.77 11.02,5.96 17.21,7.45c4.96,1.19 9.96,1.4 15.01,1.05c1.26,-0.09 2.26,-0.62 2.22,-1.96c-0.05,-1.44 -1.12,-1.94 -2.48,-1.86c-4.53,0.28 -9.03,0.24 -13.46,-0.85c-0.48,-0.12 -1.34,-0.35 -1.33,-0.6c0.02,-0.35 0.81,-0.6 1.28,-0.8c4.29,-1.84 8.39,-4.08 13.38,-3.97c9.49,0.21 17.89,7.05 19.59,16.29c2.09,11.42 -0.85,21.43 -8.7,30.01c-8.26,9.03 -16.57,18.02 -24.87,27.02c-0.64,0.7 -1.23,1.7 -2.42,1.22c-1.14,-0.46 -1.01,-1.54 -1.01,-2.52c0,-2.27 0,-4.54 0,-6.81z" fill="rgb(31,162,149)" fill-rule="nonzero" id="svg_1" stroke-dashoffset="0" stroke-miterlimit="4"/>
 </g>
</svg>

