<?xml version="1.0" encoding="UTF-8"?><svg id="Layer_2" xmlns="http://www.w3.org/2000/svg" viewBox="0 0 399 75"><defs><style>.cls-1{fill:#2a5854;}.cls-2{fill:#4c9f94;}.cls-3{fill:#1fa295;}</style></defs><g id="Layer_1-2"><path class="cls-3" d="M43.2,65.52c0-2.33,0-4.67,0-7,0-1.76-.63-3.23-2.58-3.24-1.99-.01-2.52,1.46-2.51,3.24,.03,4.67,.01,9.34,0,14.01,0,.92-.07,1.88-1.06,2.34-.99,.45-1.61-.28-2.18-.9-9.07-9.87-18.47-19.48-27.09-29.72C-.08,34.89-2.11,23.95,2.26,12.32,6.14,2.01,19.03-2.97,28.78,1.85c5.6,2.77,11.02,5.96,17.21,7.45,4.96,1.19,9.96,1.4,15.01,1.05,1.26-.09,2.26-.62,2.22-1.96-.05-1.44-1.12-1.94-2.48-1.86-4.53,.28-9.03,.24-13.46-.85-.48-.12-1.34-.35-1.33-.6,.02-.35,.81-.6,1.28-.8C51.52,2.44,55.62,.2,60.61,.31c9.49,.21,17.89,7.05,19.59,16.29,2.09,11.42-.85,21.43-8.7,30.01-8.26,9.03-16.57,18.02-24.87,27.02-.64,.7-1.23,1.7-2.42,1.22-1.14-.46-1.01-1.54-1.01-2.52,0-2.27,0-4.54,0-6.81Z"/><g><path class="cls-1" d="M98.38,33.5h13.31v5.37h-21.15v-4.48l13.06-18.61h-12.73v-5.37h20.57v4.4l-13.06,18.69Z"/><path class="cls-1" d="M131.71,18.54h5.78v20.33h-5.78v-2.4c-1.73,1.98-4.17,2.97-7.31,2.97s-5.55-1.04-7.69-3.11c-2.14-2.07-3.2-4.62-3.2-7.62s1.07-5.55,3.2-7.62c2.14-2.07,4.7-3.11,7.69-3.11,3.14,0,5.57,.99,7.31,2.97v-2.4Zm-10.67,14.29c1.17,1.07,2.64,1.61,4.44,1.61s3.28-.53,4.46-1.61c1.18-1.07,1.77-2.45,1.77-4.13s-.59-3.06-1.77-4.13c-1.18-1.07-2.67-1.61-4.46-1.61s-3.27,.54-4.44,1.61c-1.17,1.07-1.75,2.45-1.75,4.13s.58,3.06,1.75,4.13Z"/><path class="cls-1" d="M155.19,17.97c2.45,0,4.47,.75,6.07,2.24,1.6,1.49,2.4,3.55,2.4,6.18v12.48h-5.78v-11.83c0-1.36-.4-2.39-1.21-3.11-.81-.72-1.88-1.08-3.23-1.08-1.49,0-2.69,.42-3.59,1.26-.9,.84-1.34,2.1-1.34,3.78v10.98h-5.78V10.41h5.78v10.41c1.4-1.9,3.63-2.85,6.68-2.85Z"/><path class="cls-1" d="M181.05,17.97c2.45,0,4.47,.75,6.07,2.24,1.6,1.49,2.4,3.55,2.4,6.18v12.48h-5.78v-11.83c0-1.36-.4-2.39-1.21-3.11-.81-.72-1.88-1.08-3.23-1.08-1.49,0-2.69,.42-3.59,1.26-.9,.84-1.34,2.1-1.34,3.78v10.98h-5.78V18.54h5.78v2.28c1.4-1.9,3.63-2.85,6.68-2.85Z"/><path class="cls-1" d="M211.48,18.54h5.78v20.33h-5.78v-2.4c-1.73,1.98-4.17,2.97-7.31,2.97s-5.55-1.04-7.69-3.11c-2.14-2.07-3.2-4.62-3.2-7.62s1.07-5.55,3.2-7.62c2.14-2.07,4.7-3.11,7.69-3.11,3.14,0,5.57,.99,7.31,2.97v-2.4Zm-10.67,14.29c1.17,1.07,2.64,1.61,4.44,1.61s3.28-.53,4.46-1.61c1.18-1.07,1.77-2.45,1.77-4.13s-.59-3.06-1.77-4.13c-1.18-1.07-2.67-1.61-4.46-1.61s-3.27,.54-4.44,1.61c-1.17,1.07-1.75,2.45-1.75,4.13s.58,3.06,1.75,4.13Z"/><path class="cls-1" d="M228.29,22.04c.54-1.3,1.43-2.28,2.67-2.93,1.24-.65,2.62-.98,4.15-.98v5.86c-1.76-.19-3.34,.14-4.73,.98-1.39,.84-2.08,2.24-2.08,4.19v9.72h-5.78V18.54h5.78v3.5Z"/><path class="cls-1" d="M245.47,33.95h9.95v4.92h-17.67v-3.49l9.45-11.92h-9.01v-4.92h16.79v3.49l-9.51,11.92Z"/><path class="cls-1" d="M272.03,23.58h-5.06v8.46c0,.71,.19,1.22,.58,1.55,.39,.32,.96,.51,1.7,.55,.75,.04,1.67,.03,2.78-.02v4.76c-3.97,.41-6.78,.07-8.4-1.02-1.63-1.08-2.44-3.02-2.44-5.81v-8.46h-3.9v-5.04h3.9v-4.11l5.78-1.59v5.69h5.06v5.04Z"/><path class="cls-1" d="M289.51,17.97c3.02,0,5.59,1.04,7.73,3.11s3.2,4.62,3.2,7.62-1.07,5.55-3.2,7.62-4.71,3.11-7.73,3.11-5.56-.99-7.26-2.97v10.53h-5.78V18.54h5.78v2.4c1.7-1.98,4.12-2.97,7.26-2.97Zm-5.51,14.86c1.17,1.07,2.64,1.61,4.44,1.61s3.28-.53,4.46-1.61c1.18-1.07,1.77-2.45,1.77-4.13s-.59-3.06-1.77-4.13c-1.18-1.07-2.67-1.61-4.46-1.61s-3.27,.54-4.44,1.61c-1.16,1.07-1.75,2.45-1.75,4.13s.58,3.06,1.75,4.13Z"/><path class="cls-1" d="M310.31,22.04c.54-1.3,1.43-2.28,2.67-2.93,1.24-.65,2.62-.98,4.15-.98v5.86c-1.76-.19-3.34,.14-4.73,.98-1.39,.84-2.08,2.24-2.08,4.19v9.72h-5.78V18.54h5.78v3.5Z"/><path class="cls-1" d="M336.66,18.54h5.78v20.33h-5.78v-2.4c-1.73,1.98-4.17,2.97-7.31,2.97s-5.55-1.04-7.69-3.11-3.2-4.62-3.2-7.62,1.07-5.55,3.2-7.62,4.7-3.11,7.69-3.11c3.14,0,5.57,.99,7.31,2.97v-2.4Zm-10.67,14.29c1.16,1.07,2.64,1.61,4.44,1.61s3.28-.53,4.46-1.61c1.18-1.07,1.77-2.45,1.77-4.13s-.59-3.06-1.77-4.13c-1.18-1.07-2.67-1.61-4.46-1.61s-3.27,.54-4.44,1.61c-1.17,1.07-1.75,2.45-1.75,4.13s.58,3.06,1.75,4.13Z"/><path class="cls-1" d="M368.35,38.87h-6.68l-4.86-6.16-4.86,6.16h-6.68l8.21-10.38-7.86-9.95h6.68l4.52,5.73,4.53-5.73h6.63l-7.84,9.94,8.2,10.39Z"/><path class="cls-1" d="M374.08,16.1c-.96,0-1.79-.32-2.49-.96-.7-.64-1.05-1.39-1.05-2.26s.35-1.63,1.05-2.28,1.53-.98,2.49-.98,1.83,.33,2.53,.98,1.05,1.41,1.05,2.28-.35,1.62-1.05,2.26c-.7,.64-1.55,.96-2.53,.96Zm-2.87,22.77V18.54h5.78v20.33h-5.78Z"/><path class="cls-1" d="M387.44,24.31c0,.54,.4,.98,1.19,1.32,.79,.34,1.75,.64,2.89,.89,1.13,.26,2.27,.58,3.41,.98,1.13,.39,2.1,1.05,2.89,1.97,.79,.92,1.19,2.07,1.19,3.46,0,2.09-.86,3.69-2.58,4.82-1.72,1.12-3.86,1.69-6.43,1.69-4.6,0-7.74-1.61-9.41-4.84l5.02-2.56c.66,1.76,2.12,2.64,4.39,2.64,2.06,0,3.09-.58,3.09-1.75,0-.54-.4-.98-1.19-1.32-.79-.34-1.76-.64-2.89-.91-1.14-.27-2.27-.61-3.41-1.02-1.14-.41-2.1-1.05-2.89-1.93-.79-.88-1.19-1.99-1.19-3.31,0-2.01,.81-3.58,2.44-4.74,1.63-1.15,3.65-1.73,6.07-1.73,1.82,0,3.48,.37,4.97,1.12,1.49,.75,2.67,1.81,3.54,3.19l-4.93,2.44c-.72-1.38-1.91-2.07-3.58-2.07-.75,0-1.37,.15-1.86,.45-.49,.3-.74,.71-.74,1.22Z"/></g><g><path class="cls-2" d="M95.18,66.63h8.63v3.82h-13.7v-3.19l8.46-13.24h-8.25v-3.82h13.33v3.13l-8.47,13.3Z"/><path class="cls-2" d="M127.29,55.98h3.75v14.47h-3.75v-1.71c-1.12,1.41-2.7,2.11-4.73,2.11s-3.6-.74-4.98-2.21c-1.38-1.48-2.08-3.28-2.08-5.42s.69-3.95,2.08-5.42c1.38-1.48,3.04-2.21,4.98-2.21,2.03,0,3.61,.7,4.73,2.11v-1.71Zm-5.16-1.98c-.38,.38-.84,.56-1.38,.56s-1.01-.19-1.39-.56c-.39-.38-.58-.83-.58-1.37s.19-1,.58-1.39,.85-.58,1.39-.58,1,.19,1.38,.58c.38,.39,.57,.85,.57,1.39s-.19,1-.57,1.37Zm-1.76,12.15c.76,.76,1.71,1.14,2.88,1.14s2.12-.38,2.89-1.14c.76-.76,1.15-1.74,1.15-2.94s-.38-2.17-1.15-2.94c-.77-.76-1.73-1.14-2.89-1.14s-2.12,.38-2.88,1.14c-.76,.76-1.13,1.74-1.13,2.94s.38,2.17,1.13,2.94Zm7.28-12.15c-.38,.38-.84,.56-1.38,.56s-1.01-.19-1.39-.56c-.39-.38-.58-.83-.58-1.37s.19-1,.58-1.39,.85-.58,1.39-.58,1,.19,1.38,.58c.38,.39,.57,.85,.57,1.39s-.19,1-.57,1.37Z"/><path class="cls-2" d="M153.02,55.58c1.59,0,2.9,.53,3.94,1.59,1.04,1.06,1.55,2.53,1.55,4.4v8.88h-3.75v-8.42c0-.96-.26-1.7-.78-2.21-.52-.51-1.22-.77-2.09-.77-.97,0-1.74,.3-2.32,.9-.58,.6-.87,1.5-.87,2.69v7.81h-3.75v-20.25h3.75v7.41c.91-1.35,2.35-2.03,4.33-2.03Z"/><path class="cls-2" d="M180.29,55.58c1.59,0,2.9,.53,3.94,1.59,1.04,1.06,1.55,2.53,1.55,4.4v8.88h-3.75v-8.42c0-.96-.26-1.7-.78-2.21-.52-.51-1.22-.77-2.09-.77-.97,0-1.74,.3-2.32,.9-.58,.6-.87,1.5-.87,2.69v7.81h-3.75v-14.47h3.75v1.62c.91-1.35,2.35-2.03,4.33-2.03Z"/><path class="cls-2" d="M202.94,60.09c0,.39,.26,.7,.77,.94,.51,.24,1.14,.45,1.87,.64,.74,.18,1.47,.42,2.21,.69,.74,.28,1.36,.75,1.87,1.4,.51,.66,.77,1.48,.77,2.46,0,1.49-.56,2.63-1.67,3.43-1.11,.8-2.5,1.2-4.17,1.2-2.98,0-5.02-1.15-6.1-3.44l3.25-1.82c.43,1.25,1.37,1.88,2.85,1.88,1.34,0,2-.41,2-1.24,0-.39-.26-.7-.77-.94-.51-.24-1.14-.46-1.87-.65-.74-.19-1.47-.43-2.21-.72-.74-.29-1.36-.75-1.87-1.37-.51-.63-.77-1.41-.77-2.36,0-1.43,.53-2.55,1.58-3.37,1.05-.82,2.37-1.23,3.94-1.23,1.18,0,2.26,.27,3.22,.8,.97,.53,1.73,1.29,2.29,2.27l-3.19,1.74c-.47-.98-1.24-1.48-2.32-1.48-.48,0-.89,.11-1.21,.32-.32,.21-.48,.5-.48,.87Z"/><path class="cls-2" d="M234.19,55.98h3.75v14.47h-3.75v-1.71c-1.12,1.41-2.7,2.11-4.73,2.11s-3.6-.74-4.98-2.21-2.08-3.28-2.08-5.42,.69-3.95,2.08-5.42,3.04-2.21,4.98-2.21c2.03,0,3.61,.7,4.73,2.11v-1.71Zm-6.91,10.17c.76,.76,1.71,1.14,2.88,1.14s2.12-.38,2.89-1.14c.77-.76,1.15-1.74,1.15-2.94s-.38-2.17-1.15-2.94c-.77-.76-1.73-1.14-2.89-1.14s-2.12,.38-2.88,1.14c-.76,.76-1.13,1.74-1.13,2.94s.38,2.17,1.13,2.94Z"/><path class="cls-2" d="M260.16,59.57h-3.28v6.02c0,.5,.13,.87,.38,1.1,.25,.23,.62,.36,1.1,.39s1.08,.02,1.8-.01v3.39c-2.57,.29-4.39,.05-5.45-.72s-1.58-2.15-1.58-4.14v-6.02h-2.53v-3.59h2.53v-2.92l3.75-1.13v4.05h3.28v3.59Z"/><path class="cls-2" d="M275.17,54.25c-.62,0-1.16-.23-1.61-.68-.45-.45-.68-.99-.68-1.61s.23-1.16,.68-1.62c.46-.46,.99-.69,1.61-.69s1.19,.23,1.64,.69c.45,.46,.68,1,.68,1.62s-.23,1.15-.68,1.61c-.46,.45-1,.68-1.64,.68Zm-1.86,16.2v-14.47h3.75v14.47h-3.75Z"/><path class="cls-2" d="M303.37,68.64c-1.49,1.48-3.31,2.21-5.46,2.21s-3.96-.74-5.45-2.21c-1.48-1.48-2.22-3.28-2.22-5.42s.74-3.95,2.22-5.42c1.48-1.48,3.3-2.21,5.45-2.21s3.97,.74,5.46,2.21c1.49,1.48,2.24,3.28,2.24,5.42s-.75,3.95-2.24,5.42Zm-8.26-2.56c.75,.75,1.68,1.13,2.8,1.13s2.06-.38,2.82-1.13,1.13-1.71,1.13-2.86-.38-2.11-1.13-2.86-1.69-1.13-2.82-1.13-2.06,.38-2.8,1.13c-.75,.75-1.12,1.71-1.12,2.86s.37,2.11,1.12,2.86Z"/><path class="cls-2" d="M326.84,55.58c1.59,0,2.9,.53,3.94,1.59,1.04,1.06,1.55,2.53,1.55,4.4v8.88h-3.75v-8.42c0-.96-.26-1.7-.78-2.21-.52-.51-1.22-.77-2.09-.77-.97,0-1.74,.3-2.32,.9-.58,.6-.87,1.5-.87,2.69v7.81h-3.75v-14.47h3.75v1.62c.91-1.35,2.35-2.03,4.33-2.03Z"/><path class="cls-2" d="M349.2,64.75c.5,1.81,1.87,2.72,4.09,2.72,1.43,0,2.52-.48,3.25-1.45l3.02,1.74c-1.43,2.06-3.54,3.1-6.33,3.1-2.4,0-4.33-.72-5.78-2.17-1.45-1.45-2.18-3.27-2.18-5.47s.72-4,2.15-5.45c1.43-1.46,3.27-2.18,5.52-2.18,2.13,0,3.89,.73,5.27,2.2,1.38,1.47,2.08,3.28,2.08,5.44,0,.48-.05,.99-.14,1.53h-10.95Zm-.06-2.89h7.41c-.21-.98-.65-1.72-1.32-2.2s-1.43-.72-2.28-.72c-1.01,0-1.84,.26-2.5,.77-.66,.51-1.09,1.23-1.31,2.16Z"/><path class="cls-2" d="M373.42,70.45v-21.12h3.75v21.12h-3.75Z"/><path class="cls-2" d="M391.11,70.45v-21.12h3.75v21.12h-3.75Z"/></g></g></svg>